<?xml version="1.0" encoding="UTF-8"?>
<svg xmlns="http://www.w3.org/2000/svg" xmlns:xlink="http://www.w3.org/1999/xlink" width="128pt" height="128pt" viewBox="0 0 128 128" version="1.1">
<g id="surface20089690">
<path style=" stroke:none;fill-rule:nonzero;fill:rgb(100%,100%,100%);fill-opacity:1;" d="M 26 12 C 18.28125 12 12 18.28125 12 26 L 12 102 C 12 109.71875 18.28125 116 26 116 L 102 116 C 109.71875 116 116 109.71875 116 102 L 116 26 C 116 18.28125 109.71875 12 102 12 Z M 26 16 L 102 16 C 107.523438 16 112 20.476562 112 26 L 112 102 C 112 107.523438 107.523438 112 102 112 L 79.796875 112 L 79.796875 85.945312 L 91.617188 85.945312 C 92.59375 85.945312 93.429688 85.242188 93.59375 84.273438 L 95.867188 70.367188 C 96.0625 69.148438 95.125 68.039062 93.890625 68.039062 L 79.796875 68.039062 L 79.796875 64.804688 C 79.796875 61.007812 80.585938 59.3125 85.25 59.3125 L 94.554688 59.3125 C 95.65625 59.3125 96.554688 58.421875 96.554688 57.3125 L 96.554688 42.828125 C 96.554688 41.796875 95.78125 40.945312 94.757812 40.84375 C 91.78125 40.546875 85.882812 40 83.117188 40 C 70.242188 40 61.929688 48.859375 61.929688 62.570312 L 61.929688 68.039062 L 50 68.039062 C 48.898438 68.039062 48 68.9375 48 70.039062 L 48 83.945312 C 48 85.054688 48.898438 85.945312 50 85.945312 L 61.921875 85.945312 L 61.921875 112 L 26 112 C 20.476562 112 16 107.523438 16 102 L 16 26 C 16 20.476562 20.476562 16 26 16 Z M 24 24 C 22.890625 24 22 24.898438 22 26 L 22 30 C 22 31.101562 22.890625 32 24 32 C 25.109375 32 26 31.101562 26 30 L 26 26 C 26 24.898438 25.109375 24 24 24 Z M 34 24 C 32.890625 24 32 24.898438 32 26 L 32 30 C 32 31.101562 32.890625 32 34 32 C 35.109375 32 36 31.101562 36 30 L 36 26 C 36 24.898438 35.109375 24 34 24 Z M 44 24 C 42.890625 24 42 24.898438 42 26 L 42 30 C 42 31.101562 42.890625 32 44 32 C 45.109375 32 46 31.101562 46 30 L 46 26 C 46 24.898438 45.109375 24 44 24 Z M 54 24 C 52.890625 24 52 24.898438 52 26 L 52 30 C 52 31.101562 52.890625 32 54 32 C 55.109375 32 56 31.101562 56 30 L 56 26 C 56 24.898438 55.109375 24 54 24 Z M 64 24 C 62.890625 24 62 24.898438 62 26 L 62 30 C 62 31.101562 62.890625 32 64 32 C 65.109375 32 66 31.101562 66 30 L 66 26 C 66 24.898438 65.109375 24 64 24 Z M 74 24 C 72.890625 24 72 24.898438 72 26 L 72 30 C 72 31.101562 72.890625 32 74 32 C 75.109375 32 76 31.101562 76 30 L 76 26 C 76 24.898438 75.109375 24 74 24 Z M 84 24 C 82.890625 24 82 24.898438 82 26 L 82 30 C 82 31.101562 82.890625 32 84 32 C 85.109375 32 86 31.101562 86 30 L 86 26 C 86 24.898438 85.109375 24 84 24 Z M 94 24 C 92.890625 24 92 24.898438 92 26 L 92 30 C 92 31.101562 92.890625 32 94 32 C 95.109375 32 96 31.101562 96 30 L 96 26 C 96 24.898438 95.109375 24 94 24 Z M 104 24 C 102.890625 24 102 24.898438 102 26 L 102 30 C 102 31.101562 102.890625 32 104 32 C 105.109375 32 106 31.101562 106 30 L 106 26 C 106 24.898438 105.109375 24 104 24 Z M 83.117188 44 C 86.179688 44 89.34375 44.179688 92.554688 44.539062 L 92.554688 55.3125 L 85.257812 55.3125 C 76.78125 55.3125 75.804688 60.726562 75.804688 64.804688 L 75.804688 72.039062 L 91.539062 72.039062 L 89.914062 81.945312 L 75.796875 81.945312 L 75.796875 112 L 65.921875 112 L 65.921875 81.945312 L 52 81.945312 L 52 72.039062 L 65.929688 72.039062 L 65.929688 62.570312 C 65.929688 50.945312 72.351562 44 83.117188 44 Z M 83.117188 44 "/>
</g>
</svg>
