<?xml version="1.0" encoding="UTF-8"?>
<svg xmlns="http://www.w3.org/2000/svg" xmlns:xlink="http://www.w3.org/1999/xlink" width="128pt" height="128pt" viewBox="0 0 128 128" version="1.1">
<g id="surface20090902">
<path style=" stroke:none;fill-rule:nonzero;fill:rgb(100%,100%,100%);fill-opacity:1;" d="M 26 12 C 18.28125 12 12 18.28125 12 26 L 12 102 C 12 109.71875 18.28125 116 26 116 L 102 116 C 109.71875 116 116 109.71875 116 102 L 116 26 C 116 18.28125 109.71875 12 102 12 Z M 26 16 L 102 16 C 107.515625 16 112 20.484375 112 26 L 112 102 C 112 107.515625 107.515625 112 102 112 L 26 112 C 20.484375 112 16 107.515625 16 102 L 16 26 C 16 20.484375 20.484375 16 26 16 Z M 96 26 C 92.695312 26 90 28.695312 90 32 C 90 35.304688 92.695312 38 96 38 C 99.304688 38 102 35.304688 102 32 C 102 28.695312 99.304688 26 96 26 Z M 96 29.0625 C 97.617188 29.0625 98.9375 30.382812 98.9375 32 C 98.9375 33.617188 97.617188 34.9375 96 34.9375 C 94.382812 34.9375 93.0625 33.617188 93.0625 32 C 93.0625 30.382812 94.382812 29.0625 96 29.0625 Z M 64 36 C 48.5625 36 36 48.5625 36 64 C 36 79.4375 48.5625 92 64 92 C 79.4375 92 92 79.4375 92 64 C 92 48.5625 79.4375 36 64 36 Z M 64 40 C 77.234375 40 88 50.765625 88 64 C 88 77.234375 77.234375 88 64 88 C 50.765625 88 40 77.234375 40 64 C 40 50.765625 50.765625 40 64 40 Z M 64 44 C 52.96875 44 44 52.96875 44 64 C 44 75.03125 52.96875 84 64 84 C 75.03125 84 84 75.03125 84 64 C 84 52.96875 75.03125 44 64 44 Z M 64 48 C 72.820312 48 80 55.179688 80 64 C 80 72.820312 72.820312 80 64 80 C 55.179688 80 48 72.820312 48 64 C 48 55.179688 55.179688 48 64 48 Z M 24 98 C 22.898438 98 22 98.898438 22 100 L 22 104 C 22 105.101562 22.898438 106 24 106 C 25.101562 106 26 105.101562 26 104 L 26 100 C 26 98.898438 25.101562 98 24 98 Z M 34 98 C 32.898438 98 32 98.898438 32 100 L 32 104 C 32 105.101562 32.898438 106 34 106 C 35.101562 106 36 105.101562 36 104 L 36 100 C 36 98.898438 35.101562 98 34 98 Z M 44 98 C 42.898438 98 42 98.898438 42 100 L 42 104 C 42 105.101562 42.898438 106 44 106 C 45.101562 106 46 105.101562 46 104 L 46 100 C 46 98.898438 45.101562 98 44 98 Z M 54 98 C 52.898438 98 52 98.898438 52 100 L 52 104 C 52 105.101562 52.898438 106 54 106 C 55.101562 106 56 105.101562 56 104 L 56 100 C 56 98.898438 55.101562 98 54 98 Z M 64 98 C 62.898438 98 62 98.898438 62 100 L 62 104 C 62 105.101562 62.898438 106 64 106 C 65.101562 106 66 105.101562 66 104 L 66 100 C 66 98.898438 65.101562 98 64 98 Z M 74 98 C 72.898438 98 72 98.898438 72 100 L 72 104 C 72 105.101562 72.898438 106 74 106 C 75.101562 106 76 105.101562 76 104 L 76 100 C 76 98.898438 75.101562 98 74 98 Z M 84 98 C 82.898438 98 82 98.898438 82 100 L 82 104 C 82 105.101562 82.898438 106 84 106 C 85.101562 106 86 105.101562 86 104 L 86 100 C 86 98.898438 85.101562 98 84 98 Z M 94 98 C 92.898438 98 92 98.898438 92 100 L 92 104 C 92 105.101562 92.898438 106 94 106 C 95.101562 106 96 105.101562 96 104 L 96 100 C 96 98.898438 95.101562 98 94 98 Z M 104 98 C 102.898438 98 102 98.898438 102 100 L 102 104 C 102 105.101562 102.898438 106 104 106 C 105.101562 106 106 105.101562 106 104 L 106 100 C 106 98.898438 105.101562 98 104 98 Z M 104 98 "/>
</g>
</svg>
