<?xml version="1.0" encoding="UTF-8"?>
<svg xmlns="http://www.w3.org/2000/svg" xmlns:xlink="http://www.w3.org/1999/xlink" width="128pt" height="128pt" viewBox="0 0 128 128" version="1.1">
<g id="surface20091647">
<path style=" stroke:none;fill-rule:nonzero;fill:rgb(100%,100%,100%);fill-opacity:1;" d="M 26 12 C 18.28125 12 12 18.28125 12 26 L 12 102 C 12 109.71875 18.28125 116 26 116 L 102 116 C 109.71875 116 116 109.71875 116 102 L 116 26 C 116 18.28125 109.71875 12 102 12 Z M 26 16 L 102 16 C 107.515625 16 112 20.484375 112 26 L 112 102 C 112 107.515625 107.515625 112 102 112 L 26 112 C 20.484375 112 16 107.515625 16 102 L 16 26 C 16 20.484375 20.484375 16 26 16 Z M 24 24 C 22.898438 24 22 24.890625 22 26 L 22 30 C 22 31.109375 22.898438 32 24 32 C 25.101562 32 26 31.109375 26 30 L 26 26 C 26 24.890625 25.101562 24 24 24 Z M 34 24 C 32.898438 24 32 24.890625 32 26 L 32 30 C 32 31.109375 32.898438 32 34 32 C 35.101562 32 36 31.109375 36 30 L 36 26 C 36 24.890625 35.101562 24 34 24 Z M 44 24 C 42.898438 24 42 24.890625 42 26 L 42 30 C 42 31.109375 42.898438 32 44 32 C 45.101562 32 46 31.109375 46 30 L 46 26 C 46 24.890625 45.101562 24 44 24 Z M 54 24 C 52.898438 24 52 24.890625 52 26 L 52 30 C 52 31.109375 52.898438 32 54 32 C 55.101562 32 56 31.109375 56 30 L 56 26 C 56 24.890625 55.101562 24 54 24 Z M 64 24 C 62.898438 24 62 24.890625 62 26 L 62 30 C 62 31.109375 62.898438 32 64 32 C 65.101562 32 66 31.109375 66 30 L 66 26 C 66 24.890625 65.101562 24 64 24 Z M 74 24 C 72.898438 24 72 24.890625 72 26 L 72 30 C 72 31.109375 72.898438 32 74 32 C 75.101562 32 76 31.109375 76 30 L 76 26 C 76 24.890625 75.101562 24 74 24 Z M 84 24 C 82.898438 24 82 24.890625 82 26 L 82 30 C 82 31.109375 82.898438 32 84 32 C 85.101562 32 86 31.109375 86 30 L 86 26 C 86 24.890625 85.101562 24 84 24 Z M 94 24 C 92.898438 24 92 24.890625 92 26 L 92 30 C 92 31.109375 92.898438 32 94 32 C 95.101562 32 96 31.109375 96 30 L 96 26 C 96 24.890625 95.101562 24 94 24 Z M 104 24 C 102.898438 24 102 24.890625 102 26 L 102 30 C 102 31.109375 102.898438 32 104 32 C 105.101562 32 106 31.109375 106 30 L 106 26 C 106 24.890625 105.101562 24 104 24 Z M 78.90625 41.59375 C 70.296875 41.59375 63.289062 48.59375 63.289062 57.203125 C 63.289062 57.617188 63.304688 58.03125 63.335938 58.4375 C 53.539062 57.375 44.46875 52.476562 38.195312 44.773438 C 37.835938 44.328125 37.273438 44.085938 36.695312 44.125 C 36.125 44.171875 35.609375 44.5 35.320312 45 C 33.9375 47.375 33.203125 50.085938 33.203125 52.84375 C 33.203125 55.78125 34.023438 58.601562 35.507812 61.03125 C 35.007812 60.820312 34.445312 60.859375 33.96875 61.132812 C 33.4375 61.4375 33.101562 62.007812 33.09375 62.625 L 33.09375 62.820312 C 33.09375 67.703125 35.375 72.15625 39 75.046875 C 38.765625 75.148438 38.5625 75.296875 38.390625 75.492188 C 37.984375 75.953125 37.84375 76.601562 38.03125 77.1875 C 39.585938 82.03125 43.351562 85.710938 48.007812 87.25 C 44.1875 89.351562 39.90625 90.453125 35.4375 90.453125 C 34.375 90.453125 33.335938 90.390625 32.34375 90.273438 C 31.523438 90.171875 30.757812 90.648438 30.476562 91.421875 C 30.203125 92.195312 30.5 93.046875 31.1875 93.492188 C 37.820312 97.75 45.492188 100 53.375 100 C 68.867188 100 78.5625 92.6875 83.96875 86.554688 C 90.703125 78.914062 94.5625 68.804688 94.5625 58.8125 C 94.5625 58.5 94.5625 58.1875 94.554688 57.875 C 97.117188 55.90625 99.335938 53.53125 101.148438 50.8125 C 101.585938 50.171875 101.539062 49.3125 101.03125 48.71875 C 100.53125 48.117188 99.6875 47.921875 98.976562 48.242188 C 98.523438 48.4375 98.070312 48.625 97.601562 48.804688 C 98.40625 47.601562 99.046875 46.28125 99.492188 44.890625 C 99.710938 44.195312 99.484375 43.4375 98.914062 42.984375 C 98.34375 42.53125 97.554688 42.476562 96.929688 42.84375 C 94.640625 44.210938 92.171875 45.195312 89.585938 45.804688 C 86.703125 43.109375 82.867188 41.59375 78.90625 41.59375 Z M 78.90625 45.101562 C 82.242188 45.101562 85.460938 46.492188 87.742188 48.929688 C 88.15625 49.367188 88.765625 49.5625 89.367188 49.445312 C 90.796875 49.164062 92.195312 48.773438 93.5625 48.289062 C 92.773438 49.15625 91.851562 49.90625 90.828125 50.523438 C 90.117188 50.945312 89.804688 51.8125 90.070312 52.59375 C 90.335938 53.375 91.117188 53.867188 91.9375 53.773438 C 92.78125 53.664062 93.617188 53.53125 94.445312 53.359375 C 93.59375 54.164062 92.695312 54.90625 91.742188 55.59375 C 91.265625 55.9375 90.992188 56.5 91.015625 57.09375 C 91.039062 57.664062 91.0625 58.234375 91.0625 58.8125 C 91.0625 82.398438 71.898438 96.492188 53.375 96.492188 C 48.492188 96.492188 43.695312 95.546875 39.21875 93.726562 C 44.515625 93.0625 49.46875 91 53.726562 87.65625 C 54.3125 87.203125 54.546875 86.429688 54.3125 85.71875 C 54.078125 85.015625 53.421875 84.539062 52.6875 84.523438 C 48.445312 84.445312 44.640625 82.171875 42.523438 78.65625 C 43.84375 78.632812 45.148438 78.453125 46.421875 78.109375 C 47.210938 77.898438 47.742188 77.171875 47.71875 76.359375 C 47.6875 75.546875 47.101562 74.851562 46.304688 74.695312 C 41.585938 73.742188 37.945312 70.078125 36.90625 65.4375 C 38.25 65.859375 39.65625 66.09375 41.0625 66.132812 C 41.851562 66.195312 42.554688 65.664062 42.789062 64.921875 C 43.03125 64.179688 42.75 63.367188 42.09375 62.929688 C 38.726562 60.671875 36.710938 56.90625 36.710938 52.851562 C 36.710938 51.570312 36.914062 50.296875 37.304688 49.09375 C 44.578125 56.875 54.632812 61.578125 65.3125 62.117188 C 65.882812 62.148438 66.390625 61.914062 66.75 61.492188 C 67.101562 61.070312 67.234375 60.507812 67.117188 59.96875 C 66.90625 59.070312 66.796875 58.140625 66.796875 57.210938 C 66.796875 50.53125 72.226562 45.101562 78.90625 45.101562 Z M 78.90625 45.101562 "/>
</g>
</svg>
