<?xml version="1.0" encoding="UTF-8"?>
<svg xmlns="http://www.w3.org/2000/svg" xmlns:xlink="http://www.w3.org/1999/xlink" width="128pt" height="128pt" viewBox="0 0 128 128" version="1.1">
<g id="surface20088965">
<path style=" stroke:none;fill-rule:nonzero;fill:rgb(100%,100%,100%);fill-opacity:1;" d="M 64 15.96875 C 52.117188 15.96875 40.242188 16.632812 28.4375 17.9375 L 22.0625 18.648438 C 13.929688 19.554688 7.429688 25.84375 6.265625 33.960938 C 3.421875 53.890625 3.296875 74.109375 5.90625 94.070312 L 6.390625 97.84375 C 7.46875 106.070312 13.976562 112.453125 22.21875 113.375 L 28.4375 114.0625 C 40.242188 115.375 52.117188 116.03125 64 116.03125 C 75.882812 116.03125 87.765625 115.375 99.5625 114.0625 L 105.78125 113.375 C 114.023438 112.453125 120.53125 106.070312 121.601562 97.84375 L 122.09375 94.0625 C 124.703125 74.109375 124.578125 53.882812 121.726562 33.960938 C 120.570312 25.84375 114.070312 19.554688 105.9375 18.648438 L 99.5625 17.9375 C 87.757812 16.632812 75.882812 15.96875 64 15.96875 Z M 64 19.96875 C 75.734375 19.96875 87.46875 20.617188 99.117188 21.914062 L 105.492188 22.625 C 111.820312 23.320312 116.867188 28.21875 117.773438 34.523438 C 120.5625 54.09375 120.6875 73.953125 118.125 93.546875 L 117.632812 97.320312 C 116.796875 103.71875 111.742188 108.679688 105.335938 109.398438 L 99.117188 110.085938 C 75.8125 112.671875 52.1875 112.679688 28.882812 110.085938 L 22.664062 109.398438 C 16.257812 108.679688 11.195312 103.71875 10.359375 97.320312 L 9.875 93.554688 C 7.3125 73.953125 7.4375 54.09375 10.234375 34.523438 C 11.132812 28.21875 16.179688 23.320312 22.507812 22.625 L 28.882812 21.914062 C 40.539062 20.617188 52.265625 19.96875 64 19.96875 Z M 18 28 C 16.898438 28 16 28.890625 16 30 L 16 34 C 16 35.109375 16.898438 36 18 36 C 19.101562 36 20 35.109375 20 34 L 20 30 C 20 28.890625 19.101562 28 18 28 Z M 28 28 C 26.898438 28 26 28.890625 26 30 L 26 34 C 26 35.109375 26.898438 36 28 36 C 29.101562 36 30 35.109375 30 34 L 30 30 C 30 28.890625 29.101562 28 28 28 Z M 38 28 C 36.898438 28 36 28.890625 36 30 L 36 34 C 36 35.109375 36.898438 36 38 36 C 39.101562 36 40 35.109375 40 34 L 40 30 C 40 28.890625 39.101562 28 38 28 Z M 48 28 C 46.898438 28 46 28.890625 46 30 L 46 34 C 46 35.109375 46.898438 36 48 36 C 49.101562 36 50 35.109375 50 34 L 50 30 C 50 28.890625 49.101562 28 48 28 Z M 58 28 C 56.898438 28 56 28.890625 56 30 L 56 34 C 56 35.109375 56.898438 36 58 36 C 59.101562 36 60 35.109375 60 34 L 60 30 C 60 28.890625 59.101562 28 58 28 Z M 68 28 C 66.898438 28 66 28.890625 66 30 L 66 34 C 66 35.109375 66.898438 36 68 36 C 69.101562 36 70 35.109375 70 34 L 70 30 C 70 28.890625 69.101562 28 68 28 Z M 78 28 C 76.898438 28 76 28.890625 76 30 L 76 34 C 76 35.109375 76.898438 36 78 36 C 79.101562 36 80 35.109375 80 34 L 80 30 C 80 28.890625 79.101562 28 78 28 Z M 88 28 C 86.898438 28 86 28.890625 86 30 L 86 34 C 86 35.109375 86.898438 36 88 36 C 89.101562 36 90 35.109375 90 34 L 90 30 C 90 28.890625 89.101562 28 88 28 Z M 98 28 C 96.898438 28 96 28.890625 96 30 L 96 34 C 96 35.109375 96.898438 36 98 36 C 99.101562 36 100 35.109375 100 34 L 100 30 C 100 28.890625 99.101562 28 98 28 Z M 108 28 C 106.898438 28 106 28.890625 106 30 L 106 34 C 106 35.109375 106.898438 36 108 36 C 109.101562 36 110 35.109375 110 34 L 110 30 C 110 28.890625 109.101562 28 108 28 Z M 49.96875 43.78125 C 49.625 43.789062 49.289062 43.882812 48.984375 44.0625 C 48.375 44.421875 48 45.070312 48 45.78125 L 48 86 C 48 86.710938 48.375 87.359375 48.984375 87.71875 C 49.296875 87.90625 49.648438 88 50 88 C 50.335938 88 50.664062 87.914062 50.96875 87.75 L 87.539062 67.710938 C 88.179688 67.351562 88.585938 66.6875 88.585938 65.960938 C 88.585938 65.226562 88.1875 64.554688 87.554688 64.203125 L 50.96875 44.03125 C 50.65625 43.859375 50.3125 43.773438 49.96875 43.78125 Z M 52 49.164062 L 82.4375 65.945312 L 52 82.625 Z M 18 96 C 16.898438 96 16 96.890625 16 98 L 16 102 C 16 103.109375 16.898438 104 18 104 C 19.101562 104 20 103.109375 20 102 L 20 98 C 20 96.890625 19.101562 96 18 96 Z M 28 96 C 26.898438 96 26 96.890625 26 98 L 26 102 C 26 103.109375 26.898438 104 28 104 C 29.101562 104 30 103.109375 30 102 L 30 98 C 30 96.890625 29.101562 96 28 96 Z M 38 96 C 36.898438 96 36 96.890625 36 98 L 36 102 C 36 103.109375 36.898438 104 38 104 C 39.101562 104 40 103.109375 40 102 L 40 98 C 40 96.890625 39.101562 96 38 96 Z M 48 96 C 46.898438 96 46 96.890625 46 98 L 46 102 C 46 103.109375 46.898438 104 48 104 C 49.101562 104 50 103.109375 50 102 L 50 98 C 50 96.890625 49.101562 96 48 96 Z M 58 96 C 56.898438 96 56 96.890625 56 98 L 56 102 C 56 103.109375 56.898438 104 58 104 C 59.101562 104 60 103.109375 60 102 L 60 98 C 60 96.890625 59.101562 96 58 96 Z M 68 96 C 66.898438 96 66 96.890625 66 98 L 66 102 C 66 103.109375 66.898438 104 68 104 C 69.101562 104 70 103.109375 70 102 L 70 98 C 70 96.890625 69.101562 96 68 96 Z M 78 96 C 76.898438 96 76 96.890625 76 98 L 76 102 C 76 103.109375 76.898438 104 78 104 C 79.101562 104 80 103.109375 80 102 L 80 98 C 80 96.890625 79.101562 96 78 96 Z M 88 96 C 86.898438 96 86 96.890625 86 98 L 86 102 C 86 103.109375 86.898438 104 88 104 C 89.101562 104 90 103.109375 90 102 L 90 98 C 90 96.890625 89.101562 96 88 96 Z M 98 96 C 96.898438 96 96 96.890625 96 98 L 96 102 C 96 103.109375 96.898438 104 98 104 C 99.101562 104 100 103.109375 100 102 L 100 98 C 100 96.890625 99.101562 96 98 96 Z M 108 96 C 106.898438 96 106 96.890625 106 98 L 106 102 C 106 103.109375 106.898438 104 108 104 C 109.101562 104 110 103.109375 110 102 L 110 98 C 110 96.890625 109.101562 96 108 96 Z M 108 96 "/>
</g>
</svg>
